<svg width="1440" height="1024" viewBox="0 0 1440 1024" fill="none" xmlns="http://www.w3.org/2000/svg">
<g clip-path="url(#clip0_1_2)">
<path d="M702 691.5H735C744.665 691.5 752.5 699.335 752.5 709V828C752.5 837.665 744.665 845.5 735 845.5H702C692.335 845.5 684.5 837.665 684.5 828V709C684.5 699.335 692.335 691.5 702 691.5Z" fill="#B3F5BC" stroke="#4FBE5E" stroke-width="5"/>
<path d="M711.884 720C775.884 762.5 653.39 770.5 730.39 809" stroke="#4FBE5E" stroke-width="6" stroke-linecap="round"/>
<path d="M347 158.5H380C389.665 158.5 397.5 166.335 397.5 176V295C397.5 304.665 389.665 312.5 380 312.5H347C337.335 312.5 329.5 304.665 329.5 295V176C329.5 166.335 337.335 158.5 347 158.5Z" fill="#FF9AA2" stroke="#B8575E" stroke-width="5"/>
<path d="M356.884 187C420.884 229.5 298.39 237.5 375.39 276" stroke="#B8575E" stroke-width="6" stroke-linecap="round"/>
<path d="M522 283.5H555C564.665 283.5 572.5 291.335 572.5 301V420C572.5 429.665 564.665 437.5 555 437.5H522C512.335 437.5 504.5 429.665 504.5 420V301C504.5 291.335 512.335 283.5 522 283.5Z" fill="#FF9AA2" stroke="#B8575E" stroke-width="5"/>
<path d="M531.884 312C595.884 354.5 473.39 362.5 550.39 401" stroke="#B8575E" stroke-width="6" stroke-linecap="round"/>
<path d="M347 419.5H380C389.665 419.5 397.5 427.335 397.5 437V556C397.5 565.665 389.665 573.5 380 573.5H347C337.335 573.5 329.5 565.665 329.5 556V437C329.5 427.335 337.335 419.5 347 419.5Z" fill="#B3F5BC" stroke="#4FBE5E" stroke-width="5"/>
<path d="M356.884 448C420.884 490.5 298.39 498.5 375.39 537" stroke="#4FBE5E" stroke-width="6" stroke-linecap="round"/>
<path d="M347 680.5H380C389.665 680.5 397.5 688.335 397.5 698V817C397.5 826.665 389.665 834.5 380 834.5H347C337.335 834.5 329.5 826.665 329.5 817V698C329.5 688.335 337.335 680.5 347 680.5Z" fill="#D6F6FF" stroke="#58D2F5" stroke-width="5"/>
<path d="M356.884 709C420.884 751.5 298.39 759.5 375.39 798" stroke="#58D2F5" stroke-width="6" stroke-linecap="round"/>
<path d="M702 158.5H735C744.665 158.5 752.5 166.335 752.5 176V295C752.5 304.665 744.665 312.5 735 312.5H702C692.335 312.5 684.5 304.665 684.5 295V176C684.5 166.335 692.335 158.5 702 158.5Z" fill="#FF9AA2" stroke="#B8575E" stroke-width="5"/>
<path d="M711.884 187C775.884 229.5 653.39 237.5 730.39 276" stroke="#B8575E" stroke-width="6" stroke-linecap="round"/>
<path d="M878 250.5H911C920.665 250.5 928.5 258.335 928.5 268V387C928.5 396.665 920.665 404.5 911 404.5H878C868.335 404.5 860.5 396.665 860.5 387V268C860.5 258.335 868.335 250.5 878 250.5Z" fill="#FF9AA2" stroke="#B8575E" stroke-width="5"/>
<path d="M887.884 279C951.884 321.5 829.39 329.5 906.39 368" stroke="#B8575E" stroke-width="6" stroke-linecap="round"/>
<path d="M1067 407.5H1100C1109.66 407.5 1117.5 415.335 1117.5 425V544C1117.5 553.665 1109.66 561.5 1100 561.5H1067C1057.34 561.5 1049.5 553.665 1049.5 544V425C1049.5 415.335 1057.34 407.5 1067 407.5Z" fill="#FF9AA2" stroke="#B8575E" stroke-width="5"/>
<path d="M1076.88 436C1140.88 478.5 1018.39 486.5 1095.39 525" stroke="#B8575E" stroke-width="6" stroke-linecap="round"/>
<path d="M702 408.5H735C744.665 408.5 752.5 416.335 752.5 426V545C752.5 554.665 744.665 562.5 735 562.5H702C692.335 562.5 684.5 554.665 684.5 545V426C684.5 416.335 692.335 408.5 702 408.5Z" fill="#D6F6FF" stroke="#58D2F5" stroke-width="5"/>
<path d="M711.884 437C775.884 479.5 653.39 487.5 730.39 526" stroke="#58D2F5" stroke-width="6" stroke-linecap="round"/>
<path d="M890 564.5H923C932.665 564.5 940.5 572.335 940.5 582V701C940.5 710.665 932.665 718.5 923 718.5H890C880.335 718.5 872.5 710.665 872.5 701V582C872.5 572.335 880.335 564.5 890 564.5Z" fill="#D6F6FF" stroke="#58D2F5" stroke-width="5"/>
<path d="M899.884 593C963.884 635.5 841.39 643.5 918.39 682" stroke="#58D2F5" stroke-width="6" stroke-linecap="round"/>
<path d="M213 147H293" stroke="#363636" stroke-width="5" stroke-linecap="round"/>
<path d="M293 147V203" stroke="#363636" stroke-width="5" stroke-linecap="round"/>
<path d="M293 200.5C291.619 200.5 290.5 201.619 290.5 203C290.5 204.381 291.619 205.5 293 205.5V200.5ZM324.5 205.5H327V200.5H324.5V205.5ZM293 205.5H324.5V200.5H293V205.5Z" fill="#363636"/>
<path d="M215 293H295" stroke="#363636" stroke-width="5" stroke-linecap="round"/>
<path d="M295 249V293" stroke="#363636" stroke-width="5" stroke-linecap="round"/>
<path d="M295 246.5C293.619 246.5 292.5 247.619 292.5 249C292.5 250.381 293.619 251.5 295 251.5V246.5ZM324.5 251.5H327V246.5H324.5V251.5ZM295 251.5H324.5V246.5H295V251.5Z" fill="#363636"/>
<path d="M209 413H289" stroke="#363636" stroke-width="5" stroke-linecap="round"/>
<path d="M289 415V465" stroke="#363636" stroke-width="5" stroke-linecap="round"/>
<path d="M213 557H291" stroke="#363636" stroke-width="5" stroke-linecap="round"/>
<path d="M291 509V557" stroke="#363636" stroke-width="5" stroke-linecap="round"/>
<path d="M291 506.5C289.619 506.5 288.5 507.619 288.5 509C288.5 510.381 289.619 511.5 291 511.5V506.5ZM324.5 511.5H327V506.5H324.5V511.5ZM291 511.5H324.5V506.5H291V511.5Z" fill="#363636"/>
<path d="M289 462.5C287.619 462.5 286.5 463.619 286.5 465C286.5 466.381 287.619 467.5 289 467.5V462.5ZM324.5 467.5H327V462.5H324.5V467.5ZM289 467.5H324.5V462.5H289V467.5Z" fill="#363636"/>
<path d="M211.5 696H294" stroke="#363636" stroke-width="5" stroke-linecap="round"/>
<path d="M294 697.5C294 703.593 294 709.685 294 715.778C294 718.167 294 720.556 294 722.944C294 726.981 294 731.019 294 735.056C294 735.986 293.672 737.086 294.5 737.5" stroke="#363636" stroke-width="5" stroke-linecap="round"/>
<path d="M294.5 735C293.119 735 292 736.119 292 737.5C292 738.881 293.119 740 294.5 740V735ZM324.5 740H327V735H324.5V740ZM294.5 740H324.5V735H294.5V740Z" fill="#363636"/>
<path d="M208.5 840.5H295" stroke="#363636" stroke-width="5" stroke-linecap="round"/>
<path d="M295.5 809.5V840" stroke="#363636" stroke-width="5" stroke-linecap="round"/>
<path d="M296 806.5C294.619 806.5 293.5 807.619 293.5 809C293.5 810.381 294.619 811.5 296 811.5V806.5ZM324.5 811.5H327V806.5H324.5V811.5ZM296 811.5H324.5V806.5H296V811.5Z" fill="#363636"/>
<path d="M402.5 224.5H400V229.5H402.5V224.5ZM536.5 229.5C537.881 229.5 539 228.381 539 227C539 225.619 537.881 224.5 536.5 224.5V229.5ZM402.5 229.5L536.5 229.5V224.5L402.5 224.5V229.5Z" fill="#363636"/>
<path d="M539.5 227C539.5 225.619 538.381 224.5 537 224.5C535.619 224.5 534.5 225.619 534.5 227H539.5ZM534.5 278.5V281H539.5V278.5H534.5ZM534.5 227V278.5H539.5V227H534.5Z" fill="#363636"/>
<path d="M402.5 474.5H400V479.5H402.5V474.5ZM537 479.5C538.381 479.5 539.5 478.381 539.5 477C539.5 475.619 538.381 474.5 537 474.5V479.5ZM402.5 479.5H537V474.5H402.5V479.5Z" fill="#363636"/>
<path d="M537 442.5V475" stroke="#363636" stroke-width="5" stroke-linecap="square"/>
<path d="M587 627H719" stroke="#363636" stroke-width="5" stroke-linecap="round"/>
<path d="M719 567.5V625" stroke="#363636" stroke-width="5" stroke-linecap="square"/>
<path d="M577.5 334.5H575V339.5H577.5V334.5ZM719 339.5C720.381 339.5 721.5 338.381 721.5 337C721.5 335.619 720.381 334.5 719 334.5V339.5ZM577.5 339.5H719V334.5H577.5V339.5Z" fill="#363636"/>
<path d="M721.5 317.5V315H716.5V317.5H721.5ZM716.5 337C716.5 338.381 717.619 339.5 719 339.5C720.381 339.5 721.5 338.381 721.5 337H716.5ZM716.5 317.5V337H721.5V317.5H716.5Z" fill="#363636"/>
<path d="M577.5 372.5H575V377.5H577.5V372.5ZM717 377.5C718.381 377.5 719.5 376.381 719.5 375C719.5 373.619 718.381 372.5 717 372.5V377.5ZM577.5 377.5H717V372.5H577.5V377.5Z" fill="#363636"/>
<path d="M717 375V403.5" stroke="#363636" stroke-width="5" stroke-linecap="round"/>
<path d="M601 137H723" stroke="#363636" stroke-width="5" stroke-linecap="round"/>
<path d="M725.5 137C725.5 135.619 724.381 134.5 723 134.5C721.619 134.5 720.5 135.619 720.5 137H725.5ZM720.5 153.5V156H725.5V153.5H720.5ZM720.5 137V153.5H725.5V137H720.5Z" fill="#363636"/>
<path d="M402.5 771H679.5" stroke="#363636" stroke-width="5" stroke-linecap="square"/>
<path d="M757 224.5H754.5V229.5H757V224.5ZM901 229.5C902.381 229.5 903.5 228.381 903.5 227C903.5 225.619 902.381 224.5 901 224.5V229.5ZM757 229.5H901V224.5H757V229.5Z" fill="#363636"/>
<path d="M901 229V246" stroke="#363636" stroke-width="5" stroke-linecap="square"/>
<path d="M757.5 462.5H755V467.5H757.5V462.5ZM903 467.5C904.381 467.5 905.5 466.381 905.5 465C905.5 463.619 904.381 462.5 903 462.5V467.5ZM757.5 467.5H903V462.5H757.5V467.5Z" fill="#363636"/>
<path d="M903 409V465" stroke="#363636" stroke-width="5" stroke-linecap="round"/>
<path d="M757.5 506.5H755V511.5H757.5V506.5ZM907 511.5C908.381 511.5 909.5 510.381 909.5 509C909.5 507.619 908.381 506.5 907 506.5V511.5ZM757.5 511.5H907V506.5H757.5V511.5Z" fill="#363636"/>
<path d="M909.5 509C909.5 507.619 908.381 506.5 907 506.5C905.619 506.5 904.5 507.619 904.5 509H909.5ZM904.5 559.5V562H909.5V559.5H904.5ZM904.5 509V559.5H909.5V509H904.5Z" fill="#363636"/>
<path d="M757.5 766.5H755V771.5H757.5V766.5ZM911 771.5C912.381 771.5 913.5 770.381 913.5 769C913.5 767.619 912.381 766.5 911 766.5V771.5ZM757.5 771.5H911V766.5H757.5V771.5Z" fill="#363636"/>
<path d="M911 723.5V767" stroke="#363636" stroke-width="5" stroke-linecap="square"/>
<path d="M933 318.5H930.5V323.5H933V318.5ZM1087 323.5C1088.38 323.5 1089.5 322.381 1089.5 321C1089.5 319.619 1088.38 318.5 1087 318.5V323.5ZM933 323.5H1087V318.5H933V323.5Z" fill="#363636"/>
<path d="M1089.5 321C1089.5 319.619 1088.38 318.5 1087 318.5C1085.62 318.5 1084.5 319.619 1084.5 321H1089.5ZM1084.5 402.5V405H1089.5V402.5H1084.5ZM1084.5 321V402.5H1089.5V321H1084.5Z" fill="#363636"/>
<path d="M946 637H1091" stroke="#363636" stroke-width="5" stroke-linecap="square"/>
<path d="M1093.5 566.5V564H1088.5V566.5H1093.5ZM1088.5 635C1088.5 636.381 1089.62 637.5 1091 637.5C1092.38 637.5 1093.5 636.381 1093.5 635H1088.5ZM1088.5 566.5V635H1093.5V566.5H1088.5Z" fill="#363636"/>
<path d="M1123 492H1269" stroke="#363636" stroke-width="5" stroke-linecap="square"/>
</g>
<defs>
<clipPath id="clip0_1_2">
<rect width="1440" height="1024" fill="white"/>
</clipPath>
</defs>
</svg>
